<svg xmlns="http://www.w3.org/2000/svg" xmlns:xlink="http://www.w3.org/1999/xlink" width="400" height="400" viewBox="0 0 400 400"><g data-name="icon" fill="#53A57D" data="id:7171836" transform="translate(-43.232570523365034, -43.48657990225216) scale(4.864806182209395)">
  
 <path d="m59.16 32.16c0-3.7031-2.2305-7.0469-5.6562-8.4648-3.4219-1.4141-7.3594-0.63281-9.9805 1.9883-2.6211 2.6172-3.4023 6.5586-1.9844 9.9805 1.4141 3.4258 4.7578 5.6562 8.4609 5.6562 5.0547-0.011718 9.1484-4.1055 9.1602-9.1602zm-14.32 0c0-2.0859 1.2578-3.9688 3.1836-4.7656 1.9297-0.80078 4.1484-0.35938 5.625 1.1172 1.4766 1.4766 1.918 3.6953 1.1172 5.6211-0.79688 1.9297-2.6797 3.1875-4.7656 3.1875-2.8438-0.011718-5.1484-2.3164-5.1602-5.1602z" fill="#FFFFFF"/>
 <path d="m71.078 47.801c3.7148 0.03125 7.0781-2.1797 8.5195-5.6016 1.4453-3.418 0.67969-7.3711-1.9336-10.008-2.6133-2.6367-6.5586-3.4336-9.9922-2.0234-3.4297 1.4141-5.6719 4.7617-5.6719 8.4727 0 5.0273 4.0508 9.1172 9.0781 9.1602zm0-14.32c2.0977-0.03125 4 1.2031 4.8242 3.1289 0.82422 1.9258 0.40234 4.1562-1.0664 5.6484-1.4688 1.4922-3.6953 1.9492-5.6328 1.1562-1.9375-0.79297-3.2031-2.6797-3.2031-4.7734 0.011719-2.8164 2.2656-5.1055 5.0781-5.1602z" fill="#FFFFFF"/>
 <path d="m38 38.641c0-3.707-2.2305-7.0469-5.6562-8.4648-3.4219-1.418-7.3594-0.63281-9.9805 1.9883-2.6211 2.6172-3.4023 6.5586-1.9844 9.9805 1.418 3.4219 4.7578 5.6562 8.4609 5.6562 5.0586 0 9.1602-4.1016 9.1602-9.1602zm-14.32 0c0-2.0859 1.2578-3.9688 3.1875-4.7695 1.9258-0.79688 4.1445-0.35547 5.6211 1.1211 1.4766 1.4766 1.918 3.6953 1.1172 5.6211-0.79688 1.9297-2.6797 3.1875-4.7656 3.1875-2.8125-0.054687-5.0703-2.3477-5.0781-5.1602z" fill="#FFFFFF"/>
 <path d="m70.781 50.961c-2.3867 0.046874-4.7305 0.64844-6.8398 1.7578-0.73828-1.3594-1.6758-2.5977-2.7812-3.6797-3.5234-3.4883-8.4844-5.1172-13.391-4.3906-4.9062 0.72266-9.1836 3.7148-11.551 8.0703-2.3477-1.2031-4.9609-1.8086-7.5977-1.7578-4.2266 0.15625-8.2227 1.9531-11.141 5.0156-2.918 3.0586-4.5234 7.1367-4.4805 11.363v7.6602c0 1.1055 0.89453 2 2 2s2-0.89453 2-2v-7.6602c-0.09375-6.6133 5.0938-12.098 11.699-12.379 2.0977-0.050782 4.168 0.46094 6 1.4805-0.39453 1.4375-0.59375 2.9258-0.59766 4.418v10.762c0 2.9688 2.4062 5.3789 5.3789 5.3789 2.9727 0 5.3789-2.4102 5.3789-5.3789v-4.7422c-0.015625-4.2852-1.7695-8.3867-4.8594-11.359l-0.55859-0.51953c1.6953-3.3984 4.9258-5.7656 8.6758-6.3633 3.75-0.59375 7.5586 0.65625 10.223 3.3633 0.9375 0.90234 1.7148 1.957 2.3008 3.1211-3.4961 3.1406-5.4883 7.6211-5.4805 12.32v4.2812-0.003906c0 2.9727 2.4102 5.3828 5.3789 5.3828 2.9727 0 5.3828-2.4102 5.3828-5.3828v-11.32c0.011719-1.3477-0.15625-2.6953-0.5-4 1.6602-0.94141 3.5273-1.457 5.4375-1.5 3.2031-0.050782 6.293 1.1836 8.582 3.4219 2.2852 2.2344 3.5703 5.3008 3.5586 8.5v8.1797c0 1.1055 0.89453 2 2 2s2-0.89453 2-2v-8.1211c0-4.2812-1.7148-8.3828-4.7656-11.391-3.0469-3.0078-7.1719-4.668-11.453-4.6094zm-30 16v4.7383c0 0.76172-0.61719 1.3789-1.3828 1.3789-0.76172 0-1.3789-0.61719-1.3789-1.3789v-10.84-1.5c1.793 2.0977 2.793 4.7617 2.8203 7.5195zm21.219 4.6602c0 0.76172-0.61719 1.3789-1.3789 1.3789-0.76172 0-1.3828-0.61719-1.3828-1.3789v-4.2812c-0.003906-2.8438 0.95703-5.6094 2.7227-7.8398v0.89844z" fill="#FFFFFF"/>

  </g></svg>