<svg xmlns="http://www.w3.org/2000/svg" xmlns:xlink="http://www.w3.org/1999/xlink" width="400" height="400" viewBox="0 0 400 400">
<g data-name="business_name_slogan_group" transform=" translate(0.0000152587890625, -72.4000015258789)"><g data-name="business_name" fill="#000000" data="id:281" transform="translate(66.58798420816163,162.95357644974985) scale(2.85923726477842)"><path d="M13.6,47.2q6,0,6-6.8l0.8,0l0,7.6l-18.8,0l0-0.8l2,0l0-20.8l-2,0l0-0.8l18.4,0l0,6.8l-0.8,0q0-3.56-1.42-4.78t-4.58-1.22l-3.6,0l0,9.6l1.6,0q2.88,0,3.64-0.72t0.76-2.88l0.8,0l0,8l-0.8,0q0-2.24-0.76-2.92t-3.64-0.68l-1.6,0l0,10.4l4,0z M30.96,48.48q-3.24,0-5.6-2.56t-2.36-7.24t2.32-7.32t5.64-2.64q1.64,0,3.08,0.68t2.08,2.04l0-9.44l-2,0l0-0.8l8,0l0,26l2,0l0,0.8l-8,0l0-1.84q-1.08,2.32-5.16,2.32z M36.12,39.24l0-6.6q-1.08-2.16-2.82-2.16t-2.98,2t-1.24,6.34t1.28,6.34t3.08,1.72q1-0.16,1.52-0.64q1.16-1.12,1.16-7z M64.8,47.9q-1.12,0.3-2.6,0.3q-3.28,0-4.12-1.96q-2,2.08-6.12,2.08q-2.2,0-3.62-1.02t-1.42-3.02q0-2.68,2.08-4.14t7.28-2.06l1.6-0.2l0-1.96q0-3.48-0.52-4.68t-2.06-1.2t-1.98,0.42t-0.32,0.96t0.4,1.42t0.28,1.4q0,1.24-0.86,2.1t-2.08,0.86t-2.1-0.86t-0.88-2.1q0-2.04,2.1-3.5t6.28-1.46t5.96,1.64t1.78,5.8l0,7.2q0,2.12,0.52,2.66t1.92,0.22l0,0.4q-0.4,0.4-1.52,0.7z M53.6,45.82q0.92,0.82,2.14,0.82t2.14-1.2l0-6.8l-1.44,0.2q-1.84,0.24-2.98,1.4t-0.98,3.24q0.2,1.52,1.12,2.34z M89.72,47.2l2,0l0,0.8l-10,0l0-0.8l2,0l0-11.2q0-2.84-0.84-4.04t-2.52-1.2q-2.28,0-3.64,2.4l0,14.04l2,0l0,0.8l-10,0l0-0.8l2,0l0-25.2l-2,0l0-0.8l8,0l0,10.48q0.76-1.08,2.36-1.8t3.52-0.72q7.12,0,7.12,7.72l0,10.32z"/></g><g data-name="slogan" fill="#000000" data="id:304" transform="translate(108.4577538780283,305.6538736360636) scale(0.32290038793422576)"><path d="M4.2,48l0-28l12.56,0q4.84,0,7.44,1.94t2.6,5.3q0,2.28-1.02,3.84t-2.74,2.4t-3.72,0.84l0.72-1.2q2.4,0,4.24,0.84t2.92,2.46t1.08,4.02q0,3.6-2.7,5.58t-8.02,1.98l-13.36,0z M8.2,44.76l9.2,0q3.32,0,5.08-1.12t1.76-3.52q0-2.44-1.76-3.56t-5.08-1.12l-9.56,0l0-3.24l8.56,0q3.04,0,4.72-1.12t1.68-3.36t-1.68-3.36t-4.72-1.12l-8.2,0l0,21.52z M43.36,48.24q-3.4,0-5.98-1.4t-4-3.84t-1.42-5.6t1.38-5.6t3.8-3.82t5.46-1.38q3.08,0,5.44,1.36t3.7,3.82t1.34,5.74q0,0.24-0.02,0.56t-0.06,0.6l-18.04,0l0-2.76l16.04,0l-1.56,0.96q0.04-2.04-0.84-3.64t-2.42-2.5t-3.58-0.9q-2,0-3.56,0.9t-2.44,2.52t-0.88,3.7l0,0.64q0,2.12,0.98,3.78t2.74,2.58t4.04,0.92q1.88,0,3.42-0.64t2.7-1.92l2.12,2.48q-1.44,1.68-3.58,2.56t-4.78,0.88z M71.56,48l0-4.48l-0.2-0.84l0-7.64q0-2.44-1.42-3.78t-4.26-1.34q-1.88,0-3.68,0.62t-3.04,1.66l-1.6-2.88q1.64-1.32,3.94-2.02t4.82-0.7q4.36,0,6.72,2.12t2.36,6.48l0,12.8l-3.64,0z M64.6,48.24q-2.36,0-4.14-0.8t-2.74-2.22t-0.96-3.22q0-1.72,0.82-3.12t2.68-2.24t5.02-0.84l6.72,0l0,2.76l-6.56,0q-2.88,0-3.88,0.96t-1,2.32q0,1.56,1.24,2.5t3.44,0.94q2.16,0,3.78-0.96t2.34-2.8l0.76,2.64q-0.76,1.88-2.68,2.98t-4.84,1.1z M82.32,48l0-21.2l3.68,0l0,5.76l-0.36-1.44q0.88-2.2,2.96-3.36t5.12-1.16l0,3.72q-0.24-0.04-0.46-0.04l-0.42,0q-3.08,0-4.88,1.84t-1.8,5.32l0,10.56l-3.84,0z  M118.56,48.24q-3.2,0-5.68-1.4t-3.92-3.86t-1.44-5.58q0-3.16,1.44-5.6t3.92-3.82t5.68-1.38q3.16,0,5.66,1.38t3.92,3.8t1.42,5.62q0,3.16-1.42,5.6t-3.92,3.84t-5.66,1.4z M118.56,44.88q2.04,0,3.66-0.92t2.54-2.62t0.92-3.94q0-2.28-0.92-3.94t-2.54-2.58t-3.66-0.92t-3.64,0.92t-2.56,2.58t-0.96,3.94q0,2.24,0.96,3.94t2.56,2.62t3.64,0.92z M146.2,26.6q2.6,0,4.58,1t3.1,3.04t1.12,5.16l0,12.2l-3.84,0l0-11.76q0-3.08-1.5-4.64t-4.22-1.56q-2.04,0-3.56,0.8t-2.34,2.36t-0.82,3.88l0,10.92l-3.84,0l0-21.2l3.68,0l0,5.72l-0.6-1.52q1.04-2.08,3.2-3.24t5.04-1.16z M171.56,48.24q-3.4,0-5.98-1.4t-4-3.84t-1.42-5.6t1.38-5.6t3.8-3.82t5.46-1.38q3.08,0,5.44,1.36t3.7,3.82t1.34,5.74q0,0.24-0.02,0.56t-0.06,0.6l-18.04,0l0-2.76l16.04,0l-1.56,0.96q0.04-2.04-0.84-3.64t-2.42-2.5t-3.58-0.9q-2,0-3.56,0.9t-2.44,2.52t-0.88,3.7l0,0.64q0,2.12,0.98,3.78t2.74,2.58t4.04,0.92q1.88,0,3.42-0.64t2.7-1.92l2.12,2.48q-1.44,1.68-3.58,2.56t-4.78,0.88z  M210.52,48l0-4.48l-0.2-0.84l0-7.64q0-2.44-1.42-3.78t-4.26-1.34q-1.88,0-3.68,0.62t-3.04,1.66l-1.6-2.88q1.64-1.32,3.94-2.02t4.82-0.7q4.36,0,6.72,2.12t2.36,6.48l0,12.8l-3.64,0z M203.56,48.24q-2.36,0-4.14-0.8t-2.74-2.22t-0.96-3.22q0-1.72,0.82-3.12t2.68-2.24t5.02-0.84l6.72,0l0,2.76l-6.56,0q-2.88,0-3.88,0.96t-1,2.32q0,1.56,1.24,2.5t3.44,0.94q2.16,0,3.78-0.96t2.34-2.8l0.76,2.64q-0.76,1.88-2.68,2.98t-4.84,1.1z M232.6,26.6q2.6,0,4.58,1t3.1,3.04t1.12,5.16l0,12.2l-3.84,0l0-11.76q0-3.08-1.5-4.64t-4.22-1.56q-2.04,0-3.56,0.8t-2.34,2.36t-0.82,3.88l0,10.92l-3.84,0l0-21.2l3.68,0l0,5.72l-0.6-1.52q1.04-2.08,3.2-3.24t5.04-1.16z M257.6,48.24q-3.2,0-5.68-1.4t-3.92-3.86t-1.44-5.58q0-3.16,1.44-5.6t3.92-3.82t5.68-1.38q3.16,0,5.66,1.38t3.92,3.8t1.42,5.62q0,3.16-1.42,5.6t-3.92,3.84t-5.66,1.4z M257.6,44.88q2.04,0,3.66-0.92t2.54-2.62t0.92-3.94q0-2.28-0.92-3.94t-2.54-2.58t-3.66-0.92t-3.64,0.92t-2.56,2.58t-0.96,3.94q0,2.24,0.96,3.94t2.56,2.62t3.64,0.92z M281.2,48.24q-3.2,0-4.96-1.72t-1.76-4.92l0-19.44l3.84,0l0,19.28q0,1.72,0.86,2.64t2.46,0.92q1.8,0,3-1l1.2,2.76q-0.88,0.76-2.1,1.12t-2.54,0.36z M270.88,29.96l0-3.16l13.52,0l0,3.16l-13.52,0z M301.8,26.6q2.6,0,4.58,1t3.1,3.04t1.12,5.16l0,12.2l-3.84,0l0-11.76q0-3.08-1.5-4.64t-4.22-1.56q-2.04,0-3.56,0.8t-2.34,2.36t-0.82,3.88l0,10.92l-3.84,0l0-29.68l3.84,0l0,14.2l-0.76-1.52q1.04-2.08,3.2-3.24t5.04-1.16z M327.16,48.24q-3.4,0-5.98-1.4t-4-3.84t-1.42-5.6t1.38-5.6t3.8-3.82t5.46-1.38q3.08,0,5.44,1.36t3.7,3.82t1.34,5.74q0,0.24-0.02,0.56t-0.06,0.6l-18.04,0l0-2.76l16.04,0l-1.56,0.96q0.04-2.04-0.84-3.64t-2.42-2.5t-3.58-0.9q-2,0-3.56,0.9t-2.44,2.52t-0.88,3.7l0,0.64q0,2.12,0.98,3.78t2.74,2.58t4.04,0.92q1.88,0,3.42-0.64t2.7-1.92l2.12,2.48q-1.44,1.68-3.58,2.56t-4.78,0.88z M342.2,48l0-21.2l3.68,0l0,5.76l-0.36-1.44q0.88-2.2,2.96-3.36t5.12-1.16l0,3.72q-0.24-0.04-0.46-0.04l-0.42,0q-3.08,0-4.88,1.84t-1.8,5.32l0,10.56l-3.84,0z M357.72,30.8l-0.24-10.8l3.36,0l-0.28,10.8l-2.84,0z M373.08,48.24q-2.64,0-5.02-0.72t-3.74-1.76l1.6-3.04q1.36,0.92,3.36,1.56t4.08,0.64q2.68,0,3.86-0.76t1.18-2.12q0-1-0.72-1.56t-1.9-0.84t-2.62-0.5t-2.88-0.56t-2.64-0.96t-1.92-1.72t-0.72-2.94q0-1.92,1.08-3.36t3.06-2.22t4.7-0.78q2.08,0,4.22,0.5t3.5,1.42l-1.64,3.04q-1.44-0.96-3-1.32t-3.12-0.36q-2.52,0-3.76,0.82t-1.24,2.1q0,1.08,0.74,1.66t1.92,0.9t2.62,0.54t2.88,0.56t2.62,0.94t1.92,1.68t0.74,2.88q0,1.92-1.12,3.32t-3.16,2.18t-4.88,0.78z  M409.04,48.24q-2.72,0-4.9-1.22t-3.44-3.62t-1.26-6t1.3-6t3.48-3.6t4.82-1.2q3.12,0,5.52,1.36t3.8,3.78t1.4,5.66t-1.4,5.68t-3.8,3.8t-5.52,1.36z M397.8,48l0-29.68l3.84,0l0,14.12l-0.4,4.92l0.24,4.92l0,5.72l-3.68,0z M408.72,44.88q2.04,0,3.66-0.92t2.56-2.62t0.94-3.94q0-2.28-0.94-3.94t-2.56-2.58t-3.66-0.92q-2,0-3.62,0.92t-2.56,2.58t-0.94,3.94q0,2.24,0.94,3.94t2.56,2.62t3.62,0.92z M434,48.24q-2.72,0-4.78-1t-3.2-3.06t-1.14-5.18l0-12.2l3.84,0l0,11.76q0,3.12,1.5,4.68t4.22,1.56q2,0,3.48-0.82t2.28-2.4t0.8-3.82l0-10.96l3.84,0l0,21.2l-3.64,0l0-5.72l0.6,1.52q-1.04,2.12-3.12,3.28t-4.68,1.16z M452.16,48l0-21.2l3.68,0l0,5.76l-0.36-1.44q0.88-2.2,2.96-3.36t5.12-1.16l0,3.72q-0.24-0.04-0.46-0.04l-0.42,0q-3.08,0-4.88,1.84t-1.8,5.32l0,10.56l-3.84,0z M477.32,48.24q-3.08,0-5.5-1.36t-3.82-3.8t-1.4-5.68t1.4-5.66t3.82-3.78t5.5-1.36q2.68,0,4.84,1.2t3.46,3.6t1.3,6t-1.26,6t-3.42,3.62t-4.92,1.22z M477.64,44.88q2,0,3.62-0.92t2.56-2.62t0.94-3.94q0-2.28-0.94-3.94t-2.56-2.58t-3.62-0.92q-2.04,0-3.64,0.92t-2.56,2.58t-0.96,3.94q0,2.24,0.96,3.94t2.56,2.62t3.64,0.92z M484.88,48l0-5.72l0.24-4.92l-0.4-4.92l0-14.12l3.84,0l0,29.68l-3.68,0z M505.28,48.24q-3.4,0-5.98-1.4t-4-3.84t-1.42-5.6t1.38-5.6t3.8-3.82t5.46-1.38q3.08,0,5.44,1.36t3.7,3.82t1.34,5.74q0,0.24-0.02,0.56t-0.06,0.6l-18.04,0l0-2.76l16.04,0l-1.56,0.96q0.04-2.04-0.84-3.64t-2.42-2.5t-3.58-0.9q-2,0-3.56,0.9t-2.44,2.52t-0.88,3.7l0,0.64q0,2.12,0.98,3.78t2.74,2.58t4.04,0.92q1.88,0,3.42-0.64t2.7-1.92l2.12,2.48q-1.44,1.68-3.58,2.56t-4.78,0.88z M531.64,26.6q2.6,0,4.58,1t3.1,3.04t1.12,5.16l0,12.2l-3.84,0l0-11.76q0-3.08-1.5-4.64t-4.22-1.56q-2.04,0-3.56,0.8t-2.34,2.36t-0.82,3.88l0,10.92l-3.84,0l0-21.2l3.68,0l0,5.72l-0.6-1.52q1.04-2.08,3.2-3.24t5.04-1.16z M553.64,48.24q-2.64,0-5.02-0.72t-3.74-1.76l1.6-3.04q1.36,0.92,3.36,1.56t4.08,0.64q2.68,0,3.86-0.76t1.18-2.12q0-1-0.72-1.56t-1.9-0.84t-2.62-0.5t-2.88-0.56t-2.64-0.96t-1.92-1.72t-0.72-2.94q0-1.92,1.08-3.36t3.06-2.22t4.7-0.78q2.08,0,4.22,0.5t3.5,1.42l-1.64,3.04q-1.44-0.96-3-1.32t-3.12-0.36q-2.52,0-3.76,0.82t-1.24,2.1q0,1.08,0.74,1.66t1.92,0.9t2.62,0.54t2.88,0.56t2.62,0.94t1.92,1.68t0.74,2.88q0,1.92-1.12,3.32t-3.16,2.18t-4.88,0.78z"/></g></g></svg>